<svg id="Layer_1" data-name="Layer 1" xmlns="http://www.w3.org/2000/svg" viewBox="0 0 1080 1080"><defs><style>.cls-1{fill:none;}.cls-2{fill:#fff;}.cls-3{fill:#e9b3ff;}.cls-4{fill:#fca7ba;}.cls-5{fill:#6b6b6b;}.cls-6{fill:#f703eb;}.cls-7{fill:#d4f29e;}</style></defs><path class="cls-1" d="M1004.68,744.39l.05,0a.94.94,0,0,0-.1.1Z"/><path class="cls-1" d="M708.75,486.43c.2-.09.41-.15.61-.23v-.7C709.16,485.82,709,486.11,708.75,486.43Z"/><path class="cls-1" d="M939.63,629.08c-29.74,0-53,23.41-53,53.29s23.29,53.28,53,53.28,52.77-23.41,52.77-53.28S969.22,629.08,939.63,629.08Z"/><path class="cls-1" d="M111.12,596.74V732.35h52.52c39.78,0,69.77-32.39,69.77-75.34s-30-75.35-69.77-75.35h-38A21.78,21.78,0,0,1,111.12,596.74Z"/><path class="cls-1" d="M656.58,394.78c-29.73,0-53,23.41-53,53.28s23.3,53.29,53,53.29,52.78-23.41,52.78-53.29S686.18,394.78,656.58,394.78Z"/><path class="cls-1" d="M355.36,629.08c-29.74,0-53,23.41-53,53.29s23.29,53.28,53,53.28,53-23.41,53-53.28S385.09,629.08,355.36,629.08Z"/><path class="cls-1" d="M592.71,629.08c-29.73,0-53,23.41-53,53.29s23.29,53.28,53,53.28,52.78-23.41,52.78-53.28S622.31,629.08,592.71,629.08Z"/><path class="cls-1" d="M309.67,394.78c-29.73,0-53,23.41-53,53.28s23.3,53.29,53,53.29,52.78-23.41,52.78-53.29S339.27,394.78,309.67,394.78Z"/><path class="cls-2" d="M220.28,333.21a7.46,7.46,0,0,0-7.45,7.46V413.1H111.08V340.67a7.46,7.46,0,1,0-14.91,0V486.18a20.3,20.3,0,0,1,14.91.18V427.24H212.83v77.5a7.45,7.45,0,1,0,14.9,0V340.67A7.46,7.46,0,0,0,220.28,333.21Z"/><path class="cls-2" d="M369.77,383.93h-.25a7.08,7.08,0,0,0-7.07,7.08v19.61c-11.54-18.77-31-29.48-53.79-29.48-37.24,0-66.42,29.4-66.42,66.92S271.42,515,308.66,515c22.8,0,42.25-10.71,53.79-29.49v19.62a7.08,7.08,0,0,0,7.07,7.08h.25a7.09,7.09,0,0,0,7.08-7.08V391A7.09,7.09,0,0,0,369.77,383.93Zm-60.1,117.42c-29.73,0-53-23.41-53-53.29s23.3-53.28,53-53.28,52.78,23.41,52.78,53.28S339.27,501.35,309.67,501.35Z"/><path class="cls-2" d="M533.59,381.14c-18.22,0-33.54,9.05-42.27,24.89-6.85-15.84-21.21-24.89-39.64-24.89a48.77,48.77,0,0,0-18.94,3.64,25.25,25.25,0,0,0-8,5.41c0,.27,0,.54,0,.82v3.81l-.49,1.76a20.34,20.34,0,0,1-26.85,13.54v94.69a7.29,7.29,0,0,0,6.37,7.35,7.09,7.09,0,0,0,7.78-7V440.71c0-33.86,19.92-45.93,38.57-45.93,19.87,0,31.73,13.57,31.73,36.29v73.74a7.28,7.28,0,0,0,6.36,7.35,7.08,7.08,0,0,0,7.78-7V440.71c0-29.19,13.6-45.93,37.31-45.93,20.35,0,33,13.91,33,36.29v73.74a7.29,7.29,0,0,0,6.37,7.35,7.08,7.08,0,0,0,7.78-7V431.07C580.48,400.27,562.51,381.14,533.59,381.14Z"/><path class="cls-2" d="M708.75,486.43c.2-.32.41-.61.61-.93v.7a20,20,0,0,1,14.4,0V391a7.09,7.09,0,0,0-7.08-7.08h-.25a7.08,7.08,0,0,0-7.07,7.08v19.61c-11.54-18.77-31-29.48-53.79-29.48-37.24,0-66.42,29.4-66.42,66.92S618.33,515,655.57,515c15.9,0,30.16-5.22,41.25-14.74A20.56,20.56,0,0,1,708.75,486.43Zm-52.17,14.92c-29.73,0-53-23.41-53-53.29s23.3-53.28,53-53.28,52.78,23.41,52.78,53.28S686.18,501.35,656.58,501.35Z"/><path class="cls-2" d="M793.2,382.53c-16,1.78-27.69,9.74-34.7,23.68V391a7.08,7.08,0,1,0-14.15,0V505.12a7.08,7.08,0,1,0,14.15,0V441c0-25.66,13.53-42.44,36.2-44.88a6.8,6.8,0,0,0,3.88-11.84A6.9,6.9,0,0,0,793.2,382.53Z"/><path class="cls-2" d="M163.64,567.52h-39a21.46,21.46,0,0,1,1,14.14h38c39.78,0,69.77,32.39,69.77,75.35s-30,75.34-69.77,75.34H111.12V596.74A21.8,21.8,0,0,1,96.21,596V746.5h67.43c48.13,0,84.42-38.47,84.42-89.49S211.77,567.52,163.64,567.52Z"/><path class="cls-3" d="M268.12,567.52A10.75,10.75,0,1,0,279,578.14,10.9,10.9,0,0,0,268.12,567.52Z"/><path class="cls-2" d="M268.12,618.24a7.08,7.08,0,0,0-7.07,7.07V739.43a7.07,7.07,0,1,0,14.14,0V625.31A7.08,7.08,0,0,0,268.12,618.24Z"/><path class="cls-2" d="M415.46,618.24a7.08,7.08,0,0,0-7.07,7.07v20.26c-11.28-19.18-30.73-30.12-53.79-30.12-37.25,0-66.42,29.39-66.42,66.92s29.17,66.92,66.42,66.92c23.06,0,42.51-10.94,53.79-30.13v20.52c0,28.8-19.06,46.69-49.74,46.69-13.32,0-24.24-2.56-32.68-7.6a20.52,20.52,0,0,1-9.61,10.38c11.09,7.08,25.53,10.86,42.29,10.86,38.21,0,63.88-24.25,63.88-60.33V625.31A7.08,7.08,0,0,0,415.46,618.24Zm-60.1,117.41c-29.74,0-53-23.41-53-53.28s23.29-53.29,53-53.29,53,23.41,53,53.29S385.09,735.65,355.36,735.65Z"/><path class="cls-2" d="M450.2,618.24a7.08,7.08,0,0,0-7.08,7.07V739.43a7.08,7.08,0,0,0,14.15,0V625.31A7.08,7.08,0,0,0,450.2,618.24Z"/><path class="cls-4" d="M450.2,567.52a10.75,10.75,0,1,0,10.87,10.62A10.89,10.89,0,0,0,450.2,567.52Z"/><path class="cls-2" d="M492,720.39V675.27c0-25.67,13.54-42.44,36.21-44.88a6.81,6.81,0,0,0,3.88-11.84,6.92,6.92,0,0,0-5.38-1.72c-16,1.78-27.69,9.74-34.71,23.68v-15.2a7.07,7.07,0,0,0-14.14,0v95.2a19.89,19.89,0,0,1,14.14-.12Z"/><path class="cls-2" d="M652.82,618.24h-.26a7.08,7.08,0,0,0-7.07,7.07v19.62c-11.54-18.78-31-29.48-53.79-29.48-37.24,0-66.41,29.39-66.41,66.92s29.17,66.92,66.41,66.92c22.8,0,42.25-10.71,53.79-29.48v19.62a7.08,7.08,0,0,0,7.07,7.07h.26a7.08,7.08,0,0,0,7.07-7.07V625.31A7.08,7.08,0,0,0,652.82,618.24ZM592.71,735.65c-29.73,0-53-23.41-53-53.28s23.29-53.29,53-53.29,52.78,23.41,52.78,53.29S622.31,735.65,592.71,735.65Z"/><path class="cls-2" d="M816.63,615.45c-18.21,0-33.53,9-42.26,24.88-6.86-15.84-21.22-24.88-39.65-24.88-8,0-18,1.72-27,8.1,0,.58.09,1.17.09,1.76v3.83l-.52,1.8a20.41,20.41,0,0,1-26.83,13.43v94.74a7.29,7.29,0,0,0,6.37,7.35,7.07,7.07,0,0,0,7.78-7V675c0-33.86,19.92-45.93,38.57-45.93,19.87,0,31.73,13.57,31.73,36.3v73.73a7.28,7.28,0,0,0,6.36,7.35,7.08,7.08,0,0,0,7.79-7V675c0-29.19,13.59-45.93,37.3-45.93,20.35,0,33,13.91,33,36.3v73.73a7.28,7.28,0,0,0,6.36,7.35,7.07,7.07,0,0,0,7.78-7v-74C863.52,634.58,845.56,615.45,816.63,615.45Z"/><path class="cls-2" d="M999.62,723.25a16.07,16.07,0,0,1,7.18,1.72V625.43a7.2,7.2,0,0,0-14.4,0v19.5c-11.53-18.78-31-29.48-53.79-29.48-37.24,0-66.41,29.39-66.41,66.92s29.17,66.92,66.41,66.92c22.8,0,42.26-10.71,53.79-29.48V725A16.06,16.06,0,0,1,999.62,723.25Zm-60,12.4c-29.74,0-53-23.41-53-53.28s23.29-53.29,53-53.29,52.77,23.41,52.77,53.29S969.22,735.65,939.63,735.65Z"/><path class="cls-5" d="M397.44,391v0a7.25,7.25,0,0,1,.56-2.8A7.06,7.06,0,0,0,397.44,391Z"/><path class="cls-6" d="M1006.37,741.71c-.08.22-.16.43-.25.64C1006.22,742.14,1006.29,741.93,1006.37,741.71Z"/><path class="cls-6" d="M1006.71,740.44a8.63,8.63,0,0,1-.21.91A9.24,9.24,0,0,0,1006.71,740.44Z"/><path class="cls-6" d="M1006.72,740.36a7.21,7.21,0,0,0,.08-1.8v.74A7.34,7.34,0,0,1,1006.72,740.36Z"/><path class="cls-6" d="M993.2,742.57c.07.14.16.27.24.41-.11-.19-.21-.38-.31-.58C993.16,742.46,993.17,742.51,993.2,742.57Z"/><path class="cls-6" d="M999.63,746.5a7.73,7.73,0,0,0,1.35-.14,6.92,6.92,0,0,1-1.37.14Z"/><path class="cls-6" d="M1002.92,745.7a5.54,5.54,0,0,0,.51-.33,7.09,7.09,0,0,1-1,.55A4.46,4.46,0,0,0,1002.92,745.7Z"/><path class="cls-6" d="M1005.57,743.32a7.12,7.12,0,0,0,.55-1A7.78,7.78,0,0,1,1005.57,743.32Z"/><path class="cls-6" d="M1006.72,740.36v.08S1006.72,740.39,1006.72,740.36Z"/><path class="cls-6" d="M1006.5,741.35l-.13.36C1006.41,741.59,1006.46,741.48,1006.5,741.35Z"/><path class="cls-5" d="M999.6,746.5h0Z"/><path class="cls-4" d="M716.58,495.85a9.45,9.45,0,0,0-9.41,9.37,9.3,9.3,0,0,0,9.26,9.18h.25a9.29,9.29,0,0,0,9.28-9.28v-.46A9.43,9.43,0,0,0,716.58,495.85Z"/><path class="cls-3" d="M404.51,381.73a9.29,9.29,0,0,0-9.27,9.31,9.4,9.4,0,0,0,18.46,2.55l.09-.29V391A9.29,9.29,0,0,0,404.51,381.73Z"/><path class="cls-7" d="M105.16,565.34H105A11.44,11.44,0,0,0,94,576.29v.18a10.68,10.68,0,1,0,11.12-11.13Z"/><path class="cls-3" d="M312.19,763.06,312,763a9.55,9.55,0,0,0-9,.11,9.22,9.22,0,0,0-4.48,6,9.46,9.46,0,0,0,1.48,7.51c.27.38.55.75.83,1.11l.57.75.29.2a9.33,9.33,0,0,0,5.4,1.71,9.42,9.42,0,0,0,5.09-17.34Z"/><path class="cls-7" d="M485.09,730.15a9.47,9.47,0,0,0-9.42,9.38,9.27,9.27,0,0,0,18.54-.1v-2.11l-.08-.3A9.45,9.45,0,0,0,485.09,730.15Z"/><path class="cls-3" d="M687.56,616a9.32,9.32,0,0,0-8.57,5.72,12.34,12.34,0,0,0-.45,1.44c0,.16-.07.33-.1.48-.06.37-.09.75-.12,1.14a9.25,9.25,0,0,0,1,4.75,9.39,9.39,0,0,0,8.39,5.12,9.55,9.55,0,0,0,4.29-1h0a9.36,9.36,0,0,0,4.73-5.78l.09-.3v-2.27A9.28,9.28,0,0,0,687.56,616Z"/><path class="cls-4" d="M1009,738.34a9.41,9.41,0,0,0-13.66-7.45,9.44,9.44,0,0,0-5.1,8.74,7.41,7.41,0,0,0,.09.9,7.27,7.27,0,0,0,.18,1,5.5,5.5,0,0,0,.2.66,10.13,10.13,0,0,0,.45,1.15c.12.25.26.5.47.85a5.3,5.3,0,0,0,.3.48,9.77,9.77,0,0,0,.92,1.12c.12.13.25.24.43.4a10.12,10.12,0,0,0,.79.65c.17.13.35.25.53.37a10.26,10.26,0,0,0,1,.56c.23.11.46.2.7.29a8.58,8.58,0,0,0,1.09.34c.19.05.38.08.6.12a9.67,9.67,0,0,0,1.43.15h.18a10,10,0,0,0,1.78-.18l.15,0a10.36,10.36,0,0,0,1.69-.52l.14-.07a10.34,10.34,0,0,0,1.26-.69l.37-.24a10.39,10.39,0,0,0,1.16-1l.12-.12a9.57,9.57,0,0,0,1.1-1.33,9.28,9.28,0,0,0,.72-1.28,8.43,8.43,0,0,0,.33-.83l-2.07-.74h0l2.09.7c0-.14.1-.28.14-.43a10.34,10.34,0,0,0,.3-1.29,9.48,9.48,0,0,0,.1-1.39v-1Z"/><path class="cls-7" d="M103.4,495.85a9.39,9.39,0,0,0-9.4,9.08v.16a9.61,9.61,0,0,0,16.12,6.76l.11-.11a9.41,9.41,0,0,0-6.83-15.89Z"/></svg>